<mxfile host="app.diagrams.net" agent="Mozilla/5.0 (X11; Linux x86_64) AppleWebKit/537.36 (KHTML, like Gecko) Chrome/126.0.0.0 Safari/537.36" version="24.7.4">
  <diagram name="PÃ¡gina-1" id="mofru7ETSwcbLjZViEnd">
    <mxGraphModel dx="1760" dy="952" grid="1" gridSize="10" guides="1" tooltips="1" connect="1" arrows="1" fold="1" page="1" pageScale="1" pageWidth="827" pageHeight="1169" background="#ffffff" math="0" shadow="0">
      <root>
        <mxCell id="0" />
        <mxCell id="1" parent="0" />
        <mxCell id="tIxEBogE6pa6S4HLXYsj-2" value="Empleado" style="swimlane;fontStyle=1;align=center;verticalAlign=top;childLayout=stackLayout;horizontal=1;startSize=26;horizontalStack=0;resizeParent=1;resizeParentMax=0;resizeLast=0;collapsible=1;marginBottom=0;whiteSpace=wrap;html=1;" vertex="1" parent="1">
          <mxGeometry x="318.5" y="40" width="190" height="114" as="geometry" />
        </mxCell>
        <mxCell id="tIxEBogE6pa6S4HLXYsj-3" value="- nombre: String&lt;div&gt;- apellido: String&lt;/div&gt;&lt;div&gt;- numeroDeCuenta: String&lt;/div&gt;" style="text;strokeColor=none;fillColor=none;align=left;verticalAlign=top;spacingLeft=4;spacingRight=4;overflow=hidden;rotatable=0;points=[[0,0.5],[1,0.5]];portConstraint=eastwest;whiteSpace=wrap;html=1;" vertex="1" parent="tIxEBogE6pa6S4HLXYsj-2">
          <mxGeometry y="26" width="190" height="54" as="geometry" />
        </mxCell>
        <mxCell id="tIxEBogE6pa6S4HLXYsj-4" value="" style="line;strokeWidth=1;fillColor=none;align=left;verticalAlign=middle;spacingTop=-1;spacingLeft=3;spacingRight=3;rotatable=0;labelPosition=right;points=[];portConstraint=eastwest;strokeColor=inherit;" vertex="1" parent="tIxEBogE6pa6S4HLXYsj-2">
          <mxGeometry y="80" width="190" height="8" as="geometry" />
        </mxCell>
        <mxCell id="tIxEBogE6pa6S4HLXYsj-5" value="+ method(type): type" style="text;strokeColor=none;fillColor=none;align=left;verticalAlign=top;spacingLeft=4;spacingRight=4;overflow=hidden;rotatable=0;points=[[0,0.5],[1,0.5]];portConstraint=eastwest;whiteSpace=wrap;html=1;" vertex="1" parent="tIxEBogE6pa6S4HLXYsj-2">
          <mxGeometry y="88" width="190" height="26" as="geometry" />
        </mxCell>
        <mxCell id="tIxEBogE6pa6S4HLXYsj-6" value="EmpleadoEfectivo" style="swimlane;fontStyle=1;align=center;verticalAlign=top;childLayout=stackLayout;horizontal=1;startSize=26;horizontalStack=0;resizeParent=1;resizeParentMax=0;resizeLast=0;collapsible=1;marginBottom=0;whiteSpace=wrap;html=1;" vertex="1" parent="1">
          <mxGeometry x="200" y="200" width="190" height="114" as="geometry" />
        </mxCell>
        <mxCell id="tIxEBogE6pa6S4HLXYsj-7" value="- sueldoBasico: Double&lt;div&gt;-premios: Double&lt;/div&gt;&lt;div&gt;- descuentos: Double&lt;/div&gt;" style="text;strokeColor=none;fillColor=none;align=left;verticalAlign=top;spacingLeft=4;spacingRight=4;overflow=hidden;rotatable=0;points=[[0,0.5],[1,0.5]];portConstraint=eastwest;whiteSpace=wrap;html=1;" vertex="1" parent="tIxEBogE6pa6S4HLXYsj-6">
          <mxGeometry y="26" width="190" height="54" as="geometry" />
        </mxCell>
        <mxCell id="tIxEBogE6pa6S4HLXYsj-8" value="" style="line;strokeWidth=1;fillColor=none;align=left;verticalAlign=middle;spacingTop=-1;spacingLeft=3;spacingRight=3;rotatable=0;labelPosition=right;points=[];portConstraint=eastwest;strokeColor=inherit;" vertex="1" parent="tIxEBogE6pa6S4HLXYsj-6">
          <mxGeometry y="80" width="190" height="8" as="geometry" />
        </mxCell>
        <mxCell id="tIxEBogE6pa6S4HLXYsj-9" value="+ method(type): type" style="text;strokeColor=none;fillColor=none;align=left;verticalAlign=top;spacingLeft=4;spacingRight=4;overflow=hidden;rotatable=0;points=[[0,0.5],[1,0.5]];portConstraint=eastwest;whiteSpace=wrap;html=1;" vertex="1" parent="tIxEBogE6pa6S4HLXYsj-6">
          <mxGeometry y="88" width="190" height="26" as="geometry" />
        </mxCell>
        <mxCell id="tIxEBogE6pa6S4HLXYsj-10" value="EmpleadoContratado" style="swimlane;fontStyle=1;align=center;verticalAlign=top;childLayout=stackLayout;horizontal=1;startSize=26;horizontalStack=0;resizeParent=1;resizeParentMax=0;resizeLast=0;collapsible=1;marginBottom=0;whiteSpace=wrap;html=1;" vertex="1" parent="1">
          <mxGeometry x="437" y="200" width="190" height="114" as="geometry" />
        </mxCell>
        <mxCell id="tIxEBogE6pa6S4HLXYsj-11" value="&lt;div&gt;- valorPorHora: Double&lt;/div&gt;&lt;div&gt;- cantidadDeHoras: Integer&lt;/div&gt;" style="text;strokeColor=none;fillColor=none;align=left;verticalAlign=top;spacingLeft=4;spacingRight=4;overflow=hidden;rotatable=0;points=[[0,0.5],[1,0.5]];portConstraint=eastwest;whiteSpace=wrap;html=1;" vertex="1" parent="tIxEBogE6pa6S4HLXYsj-10">
          <mxGeometry y="26" width="190" height="54" as="geometry" />
        </mxCell>
        <mxCell id="tIxEBogE6pa6S4HLXYsj-12" value="" style="line;strokeWidth=1;fillColor=none;align=left;verticalAlign=middle;spacingTop=-1;spacingLeft=3;spacingRight=3;rotatable=0;labelPosition=right;points=[];portConstraint=eastwest;strokeColor=inherit;" vertex="1" parent="tIxEBogE6pa6S4HLXYsj-10">
          <mxGeometry y="80" width="190" height="8" as="geometry" />
        </mxCell>
        <mxCell id="tIxEBogE6pa6S4HLXYsj-13" value="+ method(type): type" style="text;strokeColor=none;fillColor=none;align=left;verticalAlign=top;spacingLeft=4;spacingRight=4;overflow=hidden;rotatable=0;points=[[0,0.5],[1,0.5]];portConstraint=eastwest;whiteSpace=wrap;html=1;" vertex="1" parent="tIxEBogE6pa6S4HLXYsj-10">
          <mxGeometry y="88" width="190" height="26" as="geometry" />
        </mxCell>
        <mxCell id="tIxEBogE6pa6S4HLXYsj-14" value="&lt;div&gt;&amp;lt;&amp;lt;Abstract&amp;gt;&amp;gt;&lt;/div&gt;Liquidador" style="swimlane;fontStyle=1;align=center;verticalAlign=top;childLayout=stackLayout;horizontal=1;startSize=40;horizontalStack=0;resizeParent=1;resizeParentMax=0;resizeLast=0;collapsible=1;marginBottom=0;whiteSpace=wrap;html=1;" vertex="1" parent="1">
          <mxGeometry x="279" y="360" width="320" height="120" as="geometry" />
        </mxCell>
        <mxCell id="tIxEBogE6pa6S4HLXYsj-16" value="" style="line;strokeWidth=1;fillColor=none;align=left;verticalAlign=middle;spacingTop=-1;spacingLeft=3;spacingRight=3;rotatable=0;labelPosition=right;points=[];portConstraint=eastwest;strokeColor=inherit;" vertex="1" parent="tIxEBogE6pa6S4HLXYsj-14">
          <mxGeometry y="40" width="320" height="8" as="geometry" />
        </mxCell>
        <mxCell id="tIxEBogE6pa6S4HLXYsj-17" value="&lt;div&gt;+ liquidarSueldo(empleado Empleado): String&lt;/div&gt;&lt;div&gt;- depositarSueldo(empleado Empleado): String&lt;/div&gt;+ abstract calcularSueldo(empleado Empleado): String&lt;div&gt;+ abstract generarRecibo(empleado Empleado): String&lt;/div&gt;" style="text;strokeColor=none;fillColor=none;align=left;verticalAlign=top;spacingLeft=4;spacingRight=4;overflow=hidden;rotatable=0;points=[[0,0.5],[1,0.5]];portConstraint=eastwest;whiteSpace=wrap;html=1;" vertex="1" parent="tIxEBogE6pa6S4HLXYsj-14">
          <mxGeometry y="48" width="320" height="72" as="geometry" />
        </mxCell>
        <mxCell id="tIxEBogE6pa6S4HLXYsj-22" value="Extends" style="endArrow=block;endSize=16;endFill=0;html=1;rounded=0;exitX=0.5;exitY=0;exitDx=0;exitDy=0;" edge="1" parent="1" source="tIxEBogE6pa6S4HLXYsj-6" target="tIxEBogE6pa6S4HLXYsj-5">
          <mxGeometry width="160" relative="1" as="geometry">
            <mxPoint x="424.5" y="140" as="sourcePoint" />
            <mxPoint x="584.5" y="140" as="targetPoint" />
          </mxGeometry>
        </mxCell>
        <mxCell id="tIxEBogE6pa6S4HLXYsj-23" value="Extends" style="endArrow=block;endSize=16;endFill=0;html=1;rounded=0;exitX=0.5;exitY=0;exitDx=0;exitDy=0;" edge="1" parent="1" source="tIxEBogE6pa6S4HLXYsj-10" target="tIxEBogE6pa6S4HLXYsj-5">
          <mxGeometry width="160" relative="1" as="geometry">
            <mxPoint x="284.5" y="140" as="sourcePoint" />
            <mxPoint x="444.5" y="140" as="targetPoint" />
          </mxGeometry>
        </mxCell>
        <mxCell id="tIxEBogE6pa6S4HLXYsj-24" value="Extends" style="endArrow=block;endSize=16;endFill=0;html=1;rounded=0;exitX=0.5;exitY=0;exitDx=0;exitDy=0;" edge="1" parent="1" source="tIxEBogE6pa6S4HLXYsj-30" target="tIxEBogE6pa6S4HLXYsj-17">
          <mxGeometry width="160" relative="1" as="geometry">
            <mxPoint x="282" y="609.9999999999999" as="sourcePoint" />
            <mxPoint x="662" y="700" as="targetPoint" />
          </mxGeometry>
        </mxCell>
        <mxCell id="tIxEBogE6pa6S4HLXYsj-28" value="Extends" style="endArrow=block;endSize=16;endFill=0;html=1;rounded=0;exitX=0.54;exitY=0.02;exitDx=0;exitDy=0;exitPerimeter=0;" edge="1" parent="1" source="tIxEBogE6pa6S4HLXYsj-34" target="tIxEBogE6pa6S4HLXYsj-17">
          <mxGeometry width="160" relative="1" as="geometry">
            <mxPoint x="546" y="609.9999999999999" as="sourcePoint" />
            <mxPoint x="632" y="620" as="targetPoint" />
          </mxGeometry>
        </mxCell>
        <mxCell id="tIxEBogE6pa6S4HLXYsj-30" value="LiquidadorEfectivo" style="swimlane;fontStyle=1;align=center;verticalAlign=top;childLayout=stackLayout;horizontal=1;startSize=26;horizontalStack=0;resizeParent=1;resizeParentMax=0;resizeLast=0;collapsible=1;marginBottom=0;whiteSpace=wrap;html=1;" vertex="1" parent="1">
          <mxGeometry x="120.25" y="543" width="300" height="84" as="geometry" />
        </mxCell>
        <mxCell id="tIxEBogE6pa6S4HLXYsj-32" value="" style="line;strokeWidth=1;fillColor=none;align=left;verticalAlign=middle;spacingTop=-1;spacingLeft=3;spacingRight=3;rotatable=0;labelPosition=right;points=[];portConstraint=eastwest;strokeColor=inherit;" vertex="1" parent="tIxEBogE6pa6S4HLXYsj-30">
          <mxGeometry y="26" width="300" height="8" as="geometry" />
        </mxCell>
        <mxCell id="tIxEBogE6pa6S4HLXYsj-33" value="+ calcularSueldo(empleado Empleado): Double&lt;div&gt;+ generarRecibo(empelado Empleado): Srting&lt;/div&gt;" style="text;strokeColor=none;fillColor=none;align=left;verticalAlign=top;spacingLeft=4;spacingRight=4;overflow=hidden;rotatable=0;points=[[0,0.5],[1,0.5]];portConstraint=eastwest;whiteSpace=wrap;html=1;" vertex="1" parent="tIxEBogE6pa6S4HLXYsj-30">
          <mxGeometry y="34" width="300" height="50" as="geometry" />
        </mxCell>
        <mxCell id="tIxEBogE6pa6S4HLXYsj-34" value="LiquidadorContratado" style="swimlane;fontStyle=1;align=center;verticalAlign=top;childLayout=stackLayout;horizontal=1;startSize=26;horizontalStack=0;resizeParent=1;resizeParentMax=0;resizeLast=0;collapsible=1;marginBottom=0;whiteSpace=wrap;html=1;" vertex="1" parent="1">
          <mxGeometry x="457.75" y="543" width="300" height="84" as="geometry" />
        </mxCell>
        <mxCell id="tIxEBogE6pa6S4HLXYsj-36" value="" style="line;strokeWidth=1;fillColor=none;align=left;verticalAlign=middle;spacingTop=-1;spacingLeft=3;spacingRight=3;rotatable=0;labelPosition=right;points=[];portConstraint=eastwest;strokeColor=inherit;" vertex="1" parent="tIxEBogE6pa6S4HLXYsj-34">
          <mxGeometry y="26" width="300" height="8" as="geometry" />
        </mxCell>
        <mxCell id="tIxEBogE6pa6S4HLXYsj-37" value="+ calcularSueldo(empleado Empleado): Double&lt;div&gt;+ generarRecibo(empelado Empleado): Srting&lt;/div&gt;" style="text;strokeColor=none;fillColor=none;align=left;verticalAlign=top;spacingLeft=4;spacingRight=4;overflow=hidden;rotatable=0;points=[[0,0.5],[1,0.5]];portConstraint=eastwest;whiteSpace=wrap;html=1;" vertex="1" parent="tIxEBogE6pa6S4HLXYsj-34">
          <mxGeometry y="34" width="300" height="50" as="geometry" />
        </mxCell>
      </root>
    </mxGraphModel>
  </diagram>
</mxfile>
